<svg width="100%" height="100%" viewBox="0 0 110 135" xmlns="http://www.w3.org/2000/svg" style="fill-rule:evenodd;clip-rule:evenodd;stroke-linejoin:round;stroke-miterlimit:2;">
    <g transform="matrix(1,0,0,1,5,10)">
        <path d="M50,89C71.5,89 89,71.5 89,50C89,28.5 71.5,11 50,11C28.5,11 11,28.5 11,50C11,71.5 28.5,89 50,89ZM50,27.559C55.949,27.559 60.77,32.379 60.77,38.329C60.77,44.279 55.95,49.099 50,49.099C44.05,49.099 39.23,44.279 39.23,38.329C39.23,32.379 44.05,27.559 50,27.559ZM28.25,63.559C33.512,57.45 41.301,53.59 50,53.59C58.699,53.59 66.48,57.461 71.75,63.559C73.981,66.137 73.852,70.071 71.379,72.418C65.82,77.727 58.289,80.989 50.008,80.989C41.727,80.989 34.199,77.719 28.637,72.418C26.168,70.059 26.035,66.137 28.266,63.559L28.25,63.559Z" style="fill:white;fill-rule:nonzero;"/>
    </g>
</svg>
