<svg width="100%" height="100%" viewBox="0 0 33 31" xmlns="http://www.w3.org/2000/svg" style="fill-rule:evenodd;clip-rule:evenodd;stroke-linejoin:round;stroke-miterlimit:2;">
    <g id="Artboard1" transform="matrix(0.867863,0,0,0.881922,1.84252,1.09351)">
        <rect x="-2.123" y="-1.24" width="37.031" height="35.025" style="fill:none;"/>
        <g transform="matrix(1.15226,0,0,1.13389,-2.05061,-1.86567)">
            <path d="M31.24,14.78C31.726,14.304 32,13.652 32,12.973C32,11.724 31.075,10.653 29.84,10.47L22.11,9.35C21.941,9.322 21.795,9.214 21.72,9.06L18.26,2.06C17.846,1.19 16.963,0.636 16,0.64C15.039,0.634 14.157,1.184 13.74,2.05L10.28,9.05C10.205,9.204 10.059,9.312 9.89,9.34L2.16,10.47C0.925,10.653 0,11.724 0,12.973C0,13.652 0.274,14.304 0.76,14.78L6.35,20.23C6.476,20.351 6.532,20.528 6.5,20.7L5.18,28.4C5.157,28.539 5.145,28.679 5.145,28.819C5.145,30.207 6.287,31.349 7.675,31.349C8.084,31.349 8.488,31.25 8.85,31.06L15.76,27.43C15.91,27.35 16.09,27.35 16.24,27.43L23.15,31.06C23.512,31.256 23.918,31.359 24.33,31.36C25.721,31.349 26.86,30.201 26.86,28.81C26.86,28.659 26.847,28.509 26.82,28.36L25.5,20.7C25.468,20.528 25.524,20.351 25.65,20.23L31.24,14.78ZM23.52,21L24.84,28.7C24.876,28.896 24.794,29.096 24.63,29.21C24.463,29.32 24.247,29.32 24.08,29.21L17.18,25.57C16.808,25.409 16.404,25.337 16,25.36C15.592,25.361 15.191,25.46 14.83,25.65L7.92,29.29C7.753,29.4 7.537,29.4 7.37,29.29C7.206,29.176 7.124,28.976 7.16,28.78L8.48,21C8.622,20.179 8.348,19.339 7.75,18.76L2.16,13.35C2.006,13.217 1.943,13.005 2,12.81C2.057,12.618 2.222,12.477 2.42,12.45L10.15,11.33C10.971,11.228 11.692,10.731 12.08,10L15.53,3C15.621,2.825 15.803,2.715 16,2.715C16.197,2.715 16.379,2.825 16.47,3L19.92,10C20.29,10.742 21,11.258 21.82,11.38L29.55,12.5C29.748,12.527 29.913,12.668 29.97,12.86C30.034,13.05 29.984,13.26 29.84,13.4L24.25,18.8C23.664,19.371 23.392,20.192 23.52,21Z" style="fill:white;fill-rule:nonzero;"/>
        </g>
    </g>
</svg>
