<svg width="100%" height="100%" viewBox="0 0 1024 1280" xmlns="http://www.w3.org/2000/svg" style="fill-rule:evenodd;clip-rule:evenodd;stroke-linejoin:round;stroke-miterlimit:2;">
    <path d="M424.229,345.234C426.804,345.261 429.328,345.968 431.543,347.282L694.857,499.273C699.435,501.867 702.273,506.739 702.273,512C702.273,517.261 699.435,522.133 694.857,524.727L431.543,676.718C427.022,679.328 421.435,679.328 416.914,676.718C412.376,674.098 409.579,669.231 409.6,663.991L409.6,360.009C409.579,354.769 412.376,349.902 416.914,347.282C419.129,345.968 421.653,345.261 424.229,345.234Z" style="fill:white;"/>
    <g>
        <path d="M512,1024C231.125,1024 0,792.875 0,512C-0,231.125 231.125,0 512,0C792.875,-0 1024,231.125 1024,512C1024,792.875 792.875,1024 512,1024ZM512,58.514C263.225,58.514 58.514,263.225 58.514,512C58.514,760.775 263.225,965.486 512,965.486C760.775,965.486 965.486,760.775 965.486,512C965.486,263.225 760.775,58.514 512,58.514Z" style="fill:white;fill-rule:nonzero;"/>
        <path d="M424.229,737.28C411.377,737.235 398.761,733.804 387.657,727.333C364.9,714.442 350.871,690.144 351.086,663.991L351.086,360.009C351.087,319.885 384.104,286.868 424.229,286.868C437.067,286.868 449.682,290.248 460.8,296.667L724.114,448.658C746.715,461.708 760.682,485.902 760.682,512C760.682,538.098 746.715,562.292 724.114,575.342L460.8,727.333C449.696,733.804 437.08,737.235 424.229,737.28ZM424.229,345.234C421.653,345.261 419.129,345.968 416.914,347.282C412.376,349.902 409.579,354.769 409.6,360.009L409.6,663.991C409.579,669.231 412.376,674.098 416.914,676.718C421.435,679.328 427.022,679.328 431.543,676.718L694.857,524.727C699.435,522.133 702.273,517.261 702.273,512C702.273,506.739 699.435,501.867 694.857,499.273L431.543,347.282C429.328,345.968 426.804,345.261 424.229,345.234Z" style="fill:white;fill-rule:nonzero;"/>
    </g>
</svg>
