<svg width="100%" height="100%" viewBox="0 0 973 857" xmlns="http://www.w3.org/2000/svg" style="fill-rule:evenodd;clip-rule:evenodd;stroke-linejoin:round;stroke-miterlimit:2;">
    <g id="Artboard1" transform="matrix(1.00206,0,0,1.00596,-0.767928,-2.55581)">
        <rect x="0.766" y="2.541" width="970.261" height="851.017" style="fill:none;"/>
        <g transform="matrix(0.997948,0,0,0.994072,0.766352,2.54066)">
            <path d="M909.823,281.064C909.823,291.189 909.169,301.233 908.009,311.194C905.063,329.923 900.092,348.255 893.095,365.929C889.268,374.672 884.967,383.173 880.123,391.364C877.323,396.064 874.423,400.764 871.323,405.264C869.823,407.564 868.223,409.764 866.523,412.064C865.823,412.964 865.223,413.864 864.523,414.764C864.463,414.846 864.407,414.924 864.355,414.997C855.824,425.566 846.322,435.165 836.723,444.764L539.523,741.964C522.841,758.646 506.259,775.627 489.279,792.21C488.016,792.847 487.249,793.336 486.852,793.657C486.724,793.692 486.595,793.727 486.467,793.761C486.105,793.766 485.744,793.765 485.384,793.759C485.249,793.725 485.114,793.689 484.98,793.653C484.341,793.28 483.711,792.897 483.078,792.52L340.823,650.264C303.723,613.464 266.923,576.664 230.023,539.764L142.623,452.364C135.223,444.964 127.723,437.764 120.623,430.164C117.323,426.664 114.023,422.964 110.923,419.264C109.492,417.547 108.061,415.739 106.543,413.926C106.003,413.198 105.463,412.466 104.923,411.764C99.323,404.064 94.223,396.164 89.623,387.864C85.664,380.894 82.076,373.627 78.858,366.256C71.782,348.44 66.729,329.965 63.764,311.024C61.441,291.062 61.442,271.025 63.769,251.063C66.673,232.459 71.536,214.303 78.48,196.782C83.925,184.341 90.251,172.348 97.623,160.964C99.723,157.764 101.823,154.664 104.023,151.564C104.789,150.415 105.647,149.358 106.421,148.216C111.06,142.405 115.894,136.789 120.923,131.464C126.723,125.364 132.823,119.564 139.223,114.064C142.223,111.564 145.323,109.164 148.323,106.664C141.223,112.864 147.123,107.664 148.923,106.364C150.723,105.064 152.523,103.764 154.323,102.564C167.277,93.618 181.099,86.061 195.466,79.732C213.092,72.789 231.368,67.858 250.038,64.94C269.909,62.604 290,62.606 309.951,64.946C328.606,67.866 346.868,72.794 364.479,79.732C378.846,86.061 392.669,93.618 405.623,102.564C408.823,104.764 411.823,107.264 415.023,109.364C414.359,108.936 413.798,108.573 413.328,108.267C411.427,106.968 409.751,105.944 413.328,108.267C414.154,108.832 415.023,109.448 415.523,109.864C417.223,111.264 418.923,112.664 420.623,114.164C425.423,118.364 430.123,122.664 434.623,127.164L464.623,157.164C476.123,168.664 495.523,168.664 507.023,157.164L533.723,130.464C538.923,125.264 544.123,120.164 549.623,115.364C551.823,113.464 554.023,111.564 556.223,109.764C556.333,109.674 556.444,109.584 556.555,109.494C557.311,109.077 558.061,108.337 558.723,107.864C563.723,104.164 568.823,100.664 574.023,97.364C584.54,90.688 595.56,84.932 606.928,79.942C624.621,72.949 642.963,67.949 661.763,65.005C681.725,62.682 701.762,62.684 721.724,65.01C740.329,67.914 758.484,72.777 776.006,79.722C788.446,85.166 800.439,91.493 811.823,98.864C815.023,100.964 818.123,103.064 821.223,105.264C822.372,106.031 823.429,106.888 824.571,107.662C830.383,112.302 835.998,117.136 841.323,122.164C847.423,127.964 853.223,134.064 858.723,140.464C861.223,143.464 863.623,146.564 866.123,149.564C859.923,142.464 865.123,148.364 866.423,150.164C867.723,151.964 869.023,153.764 870.223,155.564C879.169,168.518 886.726,182.341 893.056,196.708C900.235,214.934 905.263,233.856 908.139,253.189C909.261,262.371 909.823,271.683 909.823,281.064Z" style="fill:white;"/>
        </g>
        <g transform="matrix(0.997948,0,0,0.994072,-25.2574,-80.4998)">
            <path d="M935.9,364.6C935.9,375.8 935.1,386.9 933.7,397.9C934.1,395.2 934.4,392.6 934.8,389.9C931.8,411.6 926.1,432.8 917.7,453.1C918.7,450.7 919.7,448.3 920.7,445.9C916.5,455.9 911.7,465.6 906.2,474.9C903.4,479.6 900.5,484.3 897.4,488.8C895.9,491.1 894.3,493.3 892.6,495.6C891.9,496.5 891.3,497.4 890.6,498.3C887.2,503 895.2,492.5 890.7,498.2C882.1,508.9 872.5,518.6 862.8,528.3C854.8,536.3 599.9,791.2 565.6,825.5C548.9,842.2 532.3,859.2 515.3,875.8C515.2,875.9 515.1,876 515,876.1C512.4,878.6 510.6,877.9 516.7,875.1C514.6,876.1 512.8,877.6 510.7,878.5C513.1,877.5 515.5,876.5 517.9,875.5C514.9,876.7 511.9,877.6 508.8,878.1C511.5,877.7 514.1,877.4 516.8,877C513.6,877.4 510.5,877.4 507.4,877C510.1,877.4 512.7,877.7 515.4,878.1C512.2,877.6 509.2,876.8 506.3,875.5C508.7,876.5 511.1,877.5 513.5,878.5C511.4,877.5 509.5,876.2 507.5,875.1C514.4,879 511.4,878.2 509.2,876.1C509.1,876 400.5,767.4 366.9,733.8C329.8,697 293,660.2 256.1,623.3C233.1,600.3 174.8,542 168.7,535.9C161.3,528.5 153.8,521.3 146.7,513.7C143.4,510.2 140.1,506.5 137,502.8C135.5,501 134,499.1 132.4,497.2C129,493 136.3,502.4 134,499.3C133,498 132,496.6 131,495.3C125.4,487.6 120.3,479.7 115.7,471.4C111.1,463.3 107,454.8 103.4,446.2C104.4,448.6 105.4,451 106.4,453.4C97.9,432.9 92.1,411.5 89.1,389.5C89.5,392.2 89.8,394.8 90.2,397.5C87.4,375.6 87.4,353.6 90.2,331.7C89.8,334.4 89.5,337 89.1,339.7C92.1,317.7 97.8,296.3 106.4,275.8C105.4,278.2 104.4,280.6 103.4,283C109.1,269.6 115.8,256.7 123.7,244.5C125.8,241.3 127.9,238.2 130.1,235.1C130.9,233.9 131.8,232.8 132.6,231.6C137.2,225.4 129.1,236 132.3,232C137,226.1 141.9,220.4 147,215C152.8,208.9 158.9,203.1 165.3,197.6C168.3,195.1 171.4,192.7 174.4,190.2C167.3,196.4 173.2,191.2 175,189.9C176.8,188.6 178.6,187.3 180.4,186.1C194.3,176.5 209.2,168.5 224.7,161.9C222.3,162.9 219.9,163.9 217.5,164.9C237.8,156.5 259,150.8 280.7,147.8C278,148.2 275.4,148.5 272.7,148.9C294.8,146 317.2,146 339.4,148.9C336.7,148.5 334.1,148.2 331.4,147.8C353.1,150.8 374.3,156.5 394.6,164.9C392.2,163.9 389.8,162.9 387.4,161.9C402.9,168.5 417.8,176.5 431.7,186.1C434.9,188.3 437.9,190.8 441.1,192.9C433.2,187.8 439.8,191.9 441.6,193.4C443.3,194.8 445,196.2 446.7,197.7C451.5,201.9 456.2,206.2 460.7,210.7C470.7,220.7 480.7,230.7 490.7,240.7C502.2,252.2 521.6,252.2 533.1,240.7C542,231.8 550.9,222.9 559.8,214C565,208.8 570.2,203.7 575.7,198.9C577.9,197 580.1,195.1 582.3,193.3C583.4,192.4 584.6,191.5 585.7,190.6C588.1,188.7 582,193.4 582.5,193.1C583.3,192.7 584.1,191.9 584.8,191.4C589.8,187.7 594.9,184.2 600.1,180.9C611.6,173.6 623.7,167.4 636.2,162.1C633.8,163.1 631.4,164.1 629,165.1C649.5,156.6 670.9,150.8 692.9,147.8C690.2,148.2 687.6,148.5 684.9,148.9C706.8,146.1 728.8,146.1 750.7,148.9C748,148.5 745.4,148.2 742.7,147.8C764.7,150.8 786.1,156.5 806.6,165.1C804.2,164.1 801.8,163.1 799.4,162.1C812.8,167.8 825.7,174.5 837.9,182.4C841.1,184.5 844.2,186.6 847.3,188.8C848.5,189.6 849.6,190.5 850.8,191.3C857,195.9 846.4,187.8 850.4,191C856.3,195.7 862,200.6 867.4,205.7C873.5,211.5 879.3,217.6 884.8,224C887.3,227 889.7,230.1 892.2,233.1C886,226 891.2,231.9 892.5,233.7C893.8,235.5 895.1,237.3 896.3,239.1C905.9,253 913.9,267.9 920.5,283.4C919.5,281 918.5,278.6 917.5,276.2C925.9,296.5 931.6,317.7 934.6,339.4C934.2,336.7 933.9,334.1 933.5,331.4C935.1,342.3 935.9,353.4 935.9,364.6C935.9,380.3 949.7,395.3 965.9,394.6C982.1,393.9 996,381.4 995.9,364.6C995.7,311.2 980.5,257.4 951.1,212.7C923.4,170.7 884.5,135.4 838.8,114.1C796.5,94.3 749.7,84.2 702.9,87.1C656,89.9 609.8,103.8 570,129C539.9,148 515.8,173.3 490.9,198.2L533.3,198.2C523.7,188.6 514.1,179 504.6,169.5C484.5,149.4 461.5,131.8 436.2,118.7C377.2,88 309.2,79.3 244.4,93.5C213.4,100.3 183,112.9 156.3,130.1C127.9,148.4 103.9,171.2 83.5,197.9C49.3,242.6 30.6,298.3 28.3,354.3C26,409.9 41.2,466.9 71.2,513.8C90.1,543.4 115.1,567.2 139.8,591.8C148.3,600.3 416.6,868.6 436.9,888.9C446.6,898.6 456.2,908.3 465.9,917.9C486.6,938.4 519.3,943.7 544.7,928.5C551.4,924.5 556.7,919.4 562.1,914C575.3,900.8 885.1,591 892.8,583.3C905.5,570.6 918.6,558.3 930.1,544.5C952.3,517.8 969.2,488.3 980.7,455.5C990.9,426.5 995.8,395.2 995.9,364.5C995.9,348.8 982.1,333.8 965.9,334.5C949.6,335.3 935.9,347.8 935.9,364.6Z" style="fill:white;fill-rule:nonzero;"/>
        </g>
    </g>
</svg>
