<svg width="100%" height="100%" viewBox="0 0 1024 1280" xmlns="http://www.w3.org/2000/svg" style="fill-rule:evenodd;clip-rule:evenodd;stroke-linejoin:round;stroke-miterlimit:2;">
    <path d="M512,58.514C760.775,58.514 965.486,263.225 965.486,512C965.486,760.775 760.775,965.486 512,965.486C263.225,965.486 58.514,760.775 58.514,512C58.514,263.225 263.225,58.514 512,58.514ZM424.229,737.28C437.08,737.235 449.696,733.804 460.8,727.333L724.114,575.342C746.715,562.292 760.682,538.098 760.682,512C760.682,485.902 746.715,461.708 724.114,448.658L460.8,296.667C449.682,290.248 437.067,286.868 424.229,286.868C384.104,286.868 351.087,319.885 351.086,360.009L351.086,663.991C350.871,690.144 364.9,714.442 387.657,727.333C398.761,733.804 411.377,737.235 424.229,737.28Z" style="fill:white;"/>
    <path d="M512,58.514C760.775,58.514 965.486,263.225 965.486,512C965.486,760.775 760.775,965.486 512,965.486C263.225,965.486 58.514,760.775 58.514,512C58.514,263.225 263.225,58.514 512,58.514ZM437.127,708.353C448.34,708.314 459.348,705.322 469.037,699.68L698.788,567.162C718.508,555.784 730.695,534.689 730.695,511.935C730.695,489.181 718.508,468.087 698.788,456.709L469.037,324.191C459.336,318.594 448.329,315.647 437.127,315.647C402.117,315.647 373.308,344.434 373.307,379.417L373.307,644.453C373.12,667.256 385.361,688.441 405.217,699.68C414.905,705.322 425.913,708.314 437.127,708.353Z" style="fill:white;"/>
    <g>
        <path d="M512,1024C231.125,1024 0,792.875 0,512C-0,231.125 231.125,0 512,0C792.875,-0 1024,231.125 1024,512C1024,792.875 792.875,1024 512,1024ZM512,58.514C263.225,58.514 58.514,263.225 58.514,512C58.514,760.775 263.225,965.486 512,965.486C760.775,965.486 965.486,760.775 965.486,512C965.486,263.225 760.775,58.514 512,58.514Z" style="fill:white;fill-rule:nonzero;"/>
    </g>
</svg>
